<svg width="74" height="19" viewBox="0 0 74 19" fill="none" xmlns="http://www.w3.org/2000/svg">
<path d="M2.615 13.974L1.437 13.499C1.855 13.1443 2.17167 12.72 2.387 12.226C2.615 11.732 2.77967 11.1557 2.881 10.497C2.995 9.82567 3.07733 9.053 3.128 8.179C3.22933 6.887 3.52067 5.785 4.002 4.873C4.48333 3.94833 5.13567 3.24533 5.959 2.764C6.795 2.27 7.77033 2.023 8.885 2.023C9.51833 2.023 10.082 2.137 10.576 2.365C11.0827 2.58033 11.4817 2.897 11.773 3.315C12.077 3.72033 12.2227 4.22067 12.21 4.816C12.21 5.22133 12.1277 5.60767 11.963 5.975C11.7983 6.32967 11.564 6.62733 11.26 6.868C10.956 7.096 10.5823 7.21 10.139 7.21C9.92367 7.21 9.721 7.17833 9.531 7.115C9.341 7.05167 9.189 6.96933 9.075 6.868C9.23967 6.69067 9.36633 6.41833 9.455 6.051C9.54367 5.68367 9.59433 5.31633 9.607 4.949C9.607 4.379 9.48667 3.94833 9.246 3.657C9.018 3.36567 8.72033 3.22 8.353 3.22C7.935 3.22 7.593 3.34667 7.327 3.6C7.061 3.84067 6.84567 4.189 6.681 4.645C6.51633 5.101 6.38967 5.64567 6.301 6.279C6.21233 6.91233 6.13 7.609 6.054 8.369C5.978 9.281 5.79433 10.1107 5.503 10.858C5.21167 11.6053 4.82533 12.245 4.344 12.777C3.86267 13.2963 3.28633 13.6953 2.615 13.974ZM8.79 18.591C8.15667 18.591 7.56767 18.4643 7.023 18.211C6.491 17.9703 5.98433 17.66 5.503 17.28C5.03433 16.9127 4.572 16.539 4.116 16.159C3.66 15.7917 3.19133 15.4813 2.71 15.228C2.24133 14.9873 1.741 14.867 1.209 14.867C1.00633 14.867 0.841667 14.8797 0.715 14.905C0.575667 14.9303 0.455333 14.9683 0.354 15.019C0.265333 14.9557 0.202 14.867 0.164 14.753C0.113333 14.639 0.088 14.525 0.088 14.411C0.088 14.2083 0.138667 14.0247 0.24 13.86C0.341333 13.6953 0.506 13.5623 0.734 13.461C0.949333 13.3597 1.247 13.309 1.627 13.309C2.045 13.309 2.49467 13.3977 2.976 13.575C3.45733 13.7523 3.95767 13.9803 4.477 14.259C4.99633 14.525 5.51567 14.791 6.035 15.057C6.567 15.3357 7.08 15.5637 7.574 15.741C8.08067 15.931 8.55567 16.026 8.999 16.026C9.27767 16.026 9.53733 15.9943 9.778 15.931C10.0313 15.8803 10.272 15.8043 10.5 15.703C10.7153 15.817 10.8737 15.9753 10.975 16.178C11.0763 16.3933 11.127 16.615 11.127 16.843C11.127 17.109 11.032 17.375 10.842 17.641C10.6647 17.9197 10.405 18.1477 10.063 18.325C9.721 18.5023 9.29667 18.591 8.79 18.591ZM15.4186 15.38C14.8993 15.38 14.4813 15.2407 14.1646 14.962C13.848 14.6833 13.6896 14.278 13.6896 13.746C13.6896 13.556 13.7086 13.309 13.7466 13.005C13.7846 12.701 13.829 12.3843 13.8796 12.055C13.943 11.713 14.0063 11.39 14.0696 11.086C14.133 10.782 14.1836 10.535 14.2216 10.345L15.2286 5.31L18.2116 5.006L16.7106 12.587C16.698 12.6883 16.679 12.8213 16.6536 12.986C16.6283 13.138 16.6156 13.271 16.6156 13.385C16.6156 13.6003 16.6726 13.7903 16.7866 13.955C16.9133 14.107 17.1033 14.1957 17.3566 14.221C17.2426 14.6137 16.9956 14.905 16.6156 15.095C16.2356 15.285 15.8366 15.38 15.4186 15.38ZM17.2236 3.714C16.7296 3.714 16.318 3.6 15.9886 3.372C15.672 3.144 15.5136 2.81467 15.5136 2.384C15.5136 1.928 15.6846 1.586 16.0266 1.358C16.3686 1.11733 16.7866 0.996999 17.2806 0.996999C17.7746 0.996999 18.18 1.111 18.4966 1.339C18.8133 1.567 18.9716 1.90267 18.9716 2.346C18.9716 2.802 18.8006 3.144 18.4586 3.372C18.1293 3.6 17.7176 3.714 17.2236 3.714ZM20.3276 18.61C19.8209 18.61 19.4156 18.5213 19.1116 18.344C18.8076 18.1667 18.6049 17.926 18.5036 17.622C18.8709 17.5207 19.1876 17.3813 19.4536 17.204C19.7196 17.0267 19.9476 16.767 20.1376 16.425C20.3276 16.0957 20.5049 15.6397 20.6696 15.057C20.8343 14.4743 20.9989 13.7397 21.1636 12.853L22.4746 5.899H25.4196L23.9756 13.328C23.7476 14.544 23.4753 15.5383 23.1586 16.311C22.8546 17.0963 22.4746 17.6727 22.0186 18.04C21.5626 18.42 20.9989 18.61 20.3276 18.61ZM21.0876 6.165L21.2586 5.31H22.5886L22.8546 4.227C23.0446 3.49233 23.3423 2.916 23.7476 2.498C24.1529 2.06733 24.6469 1.76333 25.2296 1.586C25.8123 1.40867 26.4519 1.32 27.1486 1.32C27.5033 1.32 27.8579 1.34533 28.2126 1.396C28.5673 1.44667 28.8903 1.529 29.1816 1.643C29.4729 1.757 29.7073 1.91533 29.8846 2.118C30.0619 2.32067 30.1506 2.574 30.1506 2.878C30.1506 3.32133 29.9796 3.65067 29.6376 3.866C29.2956 4.08133 28.9156 4.189 28.4976 4.189C28.3329 4.189 28.1619 4.17633 27.9846 4.151C27.8199 4.113 27.6679 4.056 27.5286 3.98C27.6173 3.828 27.6806 3.657 27.7186 3.467C27.7693 3.277 27.7946 3.09333 27.7946 2.916C27.7946 2.688 27.7439 2.50433 27.6426 2.365C27.5413 2.22567 27.3639 2.156 27.1106 2.156C26.7179 2.156 26.4203 2.33967 26.2176 2.707C26.0149 3.06167 25.8629 3.49867 25.7616 4.018L25.5336 5.31H27.2436L27.1296 6.165H21.0876ZM32.1352 15.38C31.3879 15.38 30.7292 15.2407 30.1592 14.962C29.5892 14.6833 29.1459 14.259 28.8292 13.689C28.5252 13.119 28.3732 12.3907 28.3732 11.504C28.3732 10.6933 28.4872 9.90167 28.7152 9.129C28.9432 8.34367 29.2915 7.63433 29.7602 7.001C30.2415 6.36767 30.8495 5.86733 31.5842 5.5C32.3189 5.12 33.1929 4.93 34.2062 4.93C34.7255 4.93 35.2069 4.99967 35.6502 5.139C36.0935 5.26567 36.4482 5.49367 36.7142 5.823C36.9802 6.15233 37.1132 6.61467 37.1132 7.21C37.1132 7.88133 36.9169 8.45767 36.5242 8.939C36.1315 9.42033 35.5742 9.794 34.8522 10.06C34.1429 10.326 33.2942 10.4717 32.3062 10.497C32.1542 10.5097 31.9832 10.516 31.7932 10.516C31.6159 10.5033 31.4575 10.497 31.3182 10.497C31.3055 10.6617 31.2929 10.8327 31.2802 11.01C31.2675 11.1747 31.2612 11.3267 31.2612 11.466C31.2612 12.074 31.3815 12.549 31.6222 12.891C31.8629 13.2203 32.2935 13.385 32.9142 13.385C33.4335 13.385 33.9212 13.271 34.3772 13.043C34.8459 12.8023 35.2005 12.4667 35.4412 12.036C35.6185 12.112 35.7389 12.226 35.8022 12.378C35.8782 12.53 35.9162 12.6947 35.9162 12.872C35.9162 13.3407 35.7515 13.765 35.4222 14.145C35.0929 14.525 34.6432 14.8227 34.0732 15.038C33.5032 15.266 32.8572 15.38 32.1352 15.38ZM31.4322 9.623C31.8755 9.623 32.2872 9.566 32.6672 9.452C33.0472 9.32533 33.3829 9.15433 33.6742 8.939C33.9782 8.72367 34.2125 8.45133 34.3772 8.122C34.5419 7.79267 34.6242 7.42533 34.6242 7.02C34.6115 6.678 34.5355 6.41833 34.3962 6.241C34.2695 6.051 34.0605 5.956 33.7692 5.956C33.4905 5.956 33.2245 6.051 32.9712 6.241C32.7179 6.41833 32.4899 6.67167 32.2872 7.001C32.0972 7.33033 31.9262 7.71667 31.7742 8.16C31.6349 8.60333 31.5209 9.091 31.4322 9.623Z" fill="#637751"/>
<path d="M47.2138 10.592C47.0491 10.592 46.8654 10.592 46.6628 10.592C46.4601 10.5793 46.2828 10.5603 46.1308 10.535L46.3778 9.395H46.9668C47.7394 9.395 48.3728 9.23033 48.8668 8.901C49.3734 8.559 49.7471 8.12833 49.9878 7.609C50.2284 7.08967 50.3488 6.55133 50.3488 5.994C50.3488 5.32267 50.1904 4.778 49.8738 4.36C49.5698 3.942 49.1454 3.638 48.6008 3.448C48.0688 3.24533 47.4671 3.144 46.7958 3.144C46.2638 3.144 45.7254 3.22 45.1808 3.372C44.6361 3.524 44.1294 3.75833 43.6608 4.075C43.2048 4.379 42.8311 4.778 42.5398 5.272C42.2611 5.75333 42.1218 6.32333 42.1218 6.982C42.1218 7.324 42.1598 7.647 42.2358 7.951C42.3118 8.24233 42.4448 8.58433 42.6348 8.977C42.4701 9.129 42.2738 9.243 42.0458 9.319C41.8304 9.395 41.6214 9.433 41.4188 9.433C40.9754 9.433 40.5891 9.32533 40.2598 9.11C39.9431 8.89467 39.6961 8.60967 39.5188 8.255C39.3541 7.88767 39.2718 7.48233 39.2718 7.039C39.2718 6.25367 39.4744 5.55067 39.8798 4.93C40.2978 4.30933 40.8614 3.78367 41.5708 3.353C42.2928 2.90967 43.1098 2.56767 44.0218 2.327C44.9464 2.08633 45.9218 1.966 46.9478 1.966C47.8598 1.966 48.6958 2.05467 49.4558 2.232C50.2284 2.39667 50.8998 2.65 51.4698 2.992C52.0524 3.32133 52.5021 3.73933 52.8188 4.246C53.1354 4.75267 53.2938 5.34167 53.2938 6.013C53.2938 6.70967 53.1291 7.343 52.7998 7.913C52.4704 8.47033 52.0208 8.95167 51.4508 9.357C50.8808 9.74967 50.2284 10.0537 49.4938 10.269C48.7718 10.4843 48.0118 10.592 47.2138 10.592ZM43.5278 15.342C43.1984 15.342 42.8818 15.2787 42.5778 15.152C42.2864 15.038 42.1028 14.867 42.0268 14.639C42.1914 14.5377 42.3308 14.4047 42.4448 14.24C42.5588 14.0753 42.6538 13.86 42.7298 13.594C42.8058 13.328 42.8754 13.0113 42.9388 12.644L44.1738 6.431C44.2751 5.91167 44.4144 5.47467 44.5918 5.12C44.7818 4.76533 45.0351 4.49933 45.3518 4.322C45.6811 4.132 46.1054 4.037 46.6248 4.037C47.0554 4.037 47.4164 4.11933 47.7078 4.284C48.0118 4.44867 48.1828 4.65767 48.2208 4.911C47.9041 5.05033 47.6888 5.26567 47.5748 5.557C47.4734 5.84833 47.3784 6.21567 47.2898 6.659L46.0168 12.967C45.9154 13.499 45.7634 13.9423 45.5608 14.297C45.3708 14.639 45.1111 14.8987 44.7818 15.076C44.4524 15.2533 44.0344 15.342 43.5278 15.342ZM58.6584 15.38C58.0251 15.38 57.4741 15.285 57.0054 15.095C56.5368 14.9177 56.1504 14.6643 55.8464 14.335C55.5424 13.993 55.3208 13.6003 55.1814 13.157C55.0421 12.7137 54.9724 12.2323 54.9724 11.713C54.9724 10.8137 55.0928 9.95867 55.3334 9.148C55.5741 8.32467 55.9288 7.59633 56.3974 6.963C56.8788 6.32967 57.4741 5.83567 58.1834 5.481C58.8928 5.11367 59.7224 4.93 60.6724 4.93C61.3311 4.93 61.8884 5.025 62.3444 5.215C62.8131 5.39233 63.1931 5.64567 63.4844 5.975C63.7884 6.30433 64.0101 6.69067 64.1494 7.134C64.2888 7.56467 64.3584 8.03967 64.3584 8.559C64.3584 9.45833 64.2381 10.3197 63.9974 11.143C63.7568 11.9537 63.3958 12.682 62.9144 13.328C62.4458 13.9613 61.8568 14.4617 61.1474 14.829C60.4381 15.1963 59.6084 15.38 58.6584 15.38ZM58.9814 14.24C59.3234 14.24 59.6274 14.1007 59.8934 13.822C60.1721 13.5307 60.4064 13.1507 60.5964 12.682C60.7991 12.2007 60.9638 11.675 61.0904 11.105C61.2298 10.5223 61.3311 9.93333 61.3944 9.338C61.4578 8.74267 61.4894 8.19167 61.4894 7.685C61.4894 7.20367 61.4071 6.81733 61.2424 6.526C61.0778 6.222 60.7801 6.07 60.3494 6.07C60.0074 6.07 59.6971 6.20933 59.4184 6.488C59.1398 6.76667 58.8991 7.14033 58.6964 7.609C58.5064 8.07767 58.3481 8.60333 58.2214 9.186C58.0948 9.756 57.9998 10.3387 57.9364 10.934C57.8731 11.5293 57.8414 12.093 57.8414 12.625C57.8414 13.0937 57.9238 13.48 58.0884 13.784C58.2531 14.088 58.5508 14.24 58.9814 14.24ZM69.1481 15.38C68.6541 15.38 68.2297 15.2407 67.8751 14.962C67.5204 14.6833 67.3431 14.278 67.3431 13.746C67.3431 13.4927 67.3747 13.157 67.4381 12.739C67.5141 12.3083 67.5964 11.8523 67.6851 11.371C67.7737 10.8897 67.8624 10.4337 67.9511 10.003C68.0524 9.55967 68.1221 9.205 68.1601 8.939L68.7111 6.165H67.4761L67.5521 5.595C68.2361 5.367 68.9137 5.063 69.5851 4.683C70.2564 4.29033 70.8897 3.84067 71.4851 3.334H72.2261L71.8081 5.31H73.2901L73.1191 6.165H71.6371L70.4401 12.302C70.4021 12.4793 70.3704 12.6503 70.3451 12.815C70.3197 12.967 70.3071 13.119 70.3071 13.271C70.2944 13.6763 70.3767 13.9423 70.5541 14.069C70.7441 14.1957 71.0291 14.221 71.4091 14.145C71.2571 14.4743 71.0607 14.7277 70.8201 14.905C70.5921 15.0823 70.3324 15.2027 70.0411 15.266C69.7497 15.342 69.4521 15.38 69.1481 15.38Z" fill="white"/>
</svg>
