<svg width="64" height="15" viewBox="0 0 64 15" fill="none" xmlns="http://www.w3.org/2000/svg">
<path d="M0.0450001 1.46H3.199V12.442H6.961L6.809 14H0.0450001V1.46ZM11.2367 0.0159988C11.7561 0.0159988 12.1677 0.136333 12.4717 0.377C12.7884 0.617666 12.9467 0.953333 12.9467 1.384C12.9467 1.82733 12.7821 2.16933 12.4527 2.41C12.1234 2.638 11.6991 2.752 11.1797 2.752C10.6731 2.752 10.2551 2.638 9.92573 2.41C9.60907 2.16933 9.45073 1.84 9.45073 1.422C9.45073 0.978666 9.6154 0.636666 9.94473 0.396C10.2867 0.142666 10.7174 0.0159988 11.2367 0.0159988ZM12.6047 12.1C12.6047 12.4547 12.6491 12.765 12.7377 13.031C12.8264 13.297 12.9784 13.5313 13.1937 13.734C13.0544 13.9113 12.8391 14.0443 12.5477 14.133C12.2691 14.2343 11.9904 14.285 11.7117 14.285C11.0531 14.285 10.5527 14.1203 10.2107 13.791C9.86873 13.449 9.69773 12.9487 9.69773 12.29V4.31H12.6047V12.1ZM16.7418 14.266V5.165H15.4308V4.31H16.7418L16.7988 3.341C16.8622 2.277 17.2548 1.51067 17.9768 1.042C18.6988 0.560666 19.6615 0.319999 20.8648 0.319999C21.7515 0.319999 22.5242 0.446666 23.1828 0.699999C23.8415 0.940666 24.1708 1.37133 24.1708 1.992C24.1708 2.43533 23.9998 2.771 23.6578 2.999C23.3158 3.227 22.8852 3.341 22.3658 3.341C21.9478 3.341 21.6502 3.27767 21.4728 3.151C21.5488 2.82167 21.5868 2.524 21.5868 2.258C21.5868 1.92867 21.5172 1.669 21.3778 1.479C21.2385 1.289 21.0232 1.194 20.7318 1.194C20.2758 1.194 19.9782 1.37767 19.8388 1.745C19.6995 2.11233 19.6298 2.61267 19.6298 3.246V4.31H21.5108V5.165H19.6488V14L16.7418 14.266ZM31.5271 11.036C31.8564 11.188 32.0211 11.4983 32.0211 11.967C32.0211 12.4863 31.8501 12.9297 31.5081 13.297C31.1661 13.6643 30.7228 13.943 30.1781 14.133C29.6461 14.323 29.0951 14.418 28.5251 14.418C27.0051 14.418 25.8524 13.9557 25.0671 13.031C24.2944 12.1063 23.9081 10.8397 23.9081 9.231C23.9081 7.57167 24.3261 6.27333 25.1621 5.336C26.0108 4.39867 27.2331 3.93 28.8291 3.93C29.8551 3.93 30.7038 4.16433 31.3751 4.633C32.0464 5.10167 32.3821 5.792 32.3821 6.704C32.3821 7.83133 31.9831 8.61033 31.1851 9.041C30.3871 9.47167 29.2978 9.687 27.9171 9.687C27.4864 9.687 27.1508 9.668 26.9101 9.63C26.9481 10.5293 27.1191 11.2387 27.4231 11.758C27.7398 12.2773 28.2654 12.537 29.0001 12.537C29.5448 12.537 30.0388 12.4103 30.4821 12.157C30.9381 11.891 31.2864 11.5173 31.5271 11.036ZM28.5441 5.051C27.9361 5.051 27.5118 5.42467 27.2711 6.172C27.0431 6.90667 26.9228 7.768 26.9101 8.756H27.2901C28.0881 8.76867 28.6898 8.623 29.0951 8.319C29.5131 8.015 29.7221 7.49567 29.7221 6.761C29.7221 6.27967 29.6208 5.87433 29.4181 5.545C29.2281 5.21567 28.9368 5.051 28.5441 5.051ZM44.756 5.089C44.756 6.21633 44.414 7.12833 43.73 7.825C43.046 8.509 42.1466 8.851 41.032 8.851C40.5126 8.851 40.082 8.76233 39.74 8.585C39.398 8.395 39.227 8.09733 39.227 7.692C40.063 7.692 40.6646 7.48933 41.032 7.084C41.412 6.666 41.602 6.02 41.602 5.146C41.602 3.55 40.9306 2.752 39.588 2.752C39.2713 2.752 38.942 2.78367 38.6 2.847V14H35.446V1.593C37.08 1.441 38.486 1.365 39.664 1.365C41.2473 1.365 42.4886 1.65 43.388 2.22C44.3 2.77733 44.756 3.73367 44.756 5.089ZM51.17 3.93C52.69 3.93 53.83 4.37967 54.59 5.279C55.3626 6.17833 55.749 7.426 55.749 9.022C55.749 10.6687 55.3626 11.9797 54.59 12.955C53.8173 13.9303 52.6773 14.418 51.17 14.418C49.6753 14.418 48.5353 13.9493 47.75 13.012C46.9646 12.0747 46.572 10.808 46.572 9.212C46.572 7.59067 46.9583 6.305 47.731 5.355C48.5163 4.405 49.6626 3.93 51.17 3.93ZM51.17 13.278C51.8286 13.278 52.253 12.8917 52.443 12.119C52.633 11.3463 52.728 10.3457 52.728 9.117C52.728 7.95167 52.6266 6.989 52.424 6.229C52.2213 5.45633 51.8033 5.07 51.17 5.07C50.5366 5.07 50.1186 5.45633 49.916 6.229C49.7133 7.00167 49.612 7.96433 49.612 9.117C49.612 10.3457 49.707 11.3463 49.897 12.119C50.087 12.8917 50.5113 13.278 51.17 13.278ZM58.0134 5.165V4.576C58.6214 4.348 59.2357 4.03133 59.8564 3.626C60.477 3.22067 60.99 2.79 61.3954 2.334H62.2124V4.31H63.9604V5.165H62.1934V11.929C62.1934 12.3217 62.263 12.6257 62.4024 12.841C62.5544 13.0437 62.795 13.1767 63.1244 13.24C62.9977 13.5693 62.7634 13.8227 62.4214 14C62.0794 14.19 61.6994 14.285 61.2814 14.285C60.6227 14.285 60.1224 14.1077 59.7804 13.753C59.451 13.3983 59.2864 12.8853 59.2864 12.214V5.165H58.0134Z" fill="white"/>
</svg>
